<?xml version="1.0" encoding="UTF-8"?>
<svg version="1.1" viewBox="0 0 2048 1280" width="576" height="360" xmlns="http://www.w3.org/2000/svg">
<path transform="translate(996,390)" d="m0 0h15l17 3 3 1h9l6-1h26l15 3 13 5 11 6 13 10 7 7 8 11 9 17 5 18 1 6v23l-4 17-6 15-9 14-12 13-10 8-5 2 11 23 12 23 17 33 14 27 6 11v3h-82l-5-8-12-23-15-30-9-17-11-23-5-10-13 2h-26l-5-1v104l-1 4-5 2h-66l-4-2-1-5v-283l3-5 69-1zm5 19-21 4-11 5-10 6-10 9-8 9-8 15-4 14-1 7v14l3 15 7 16 10 13 7 7 14 9 13 5 8 2h7l-6-7-7-8-8-13-6-15-4-16v-26l5-19 6-14 9-13 11-12 7-6zm65 3v3l6 5 10 13 8 15 4 13 3 17v14l-3 17-6 17-9 15-12 13-7 6 1 2h7l14-3 14-6 11-8 10-9 9-14 5-11 3-14v-20l-4-16-8-16-9-11-14-11-13-6-12-4zm-35 5-11 6-15 12-8 10-8 15-4 16-1 13 2 14 4 13 5 10 7 9 4 5 11 9 10 6 6-1 15-9 13-12 9-14 5-12 3-16v-12l-3-16-5-12-6-10-9-10-9-8-11-6zm-107 122v95l2 10 4 9 7 9 10 7 13 4h6l4-2 1-4v-93l-16-8-10-7-10-9-7-8-2-3zm167 37-17 4-9 1h-15l2 6 20 41 15 30 6 13h7l10-4 5-4 6-9 2-5v-14l-8-18-10-19-11-21z" fill="#DE1467"/>
<path transform="translate(1046,393)" d="m0 0h26l15 3 13 5 11 6 13 10 7 7 8 11 9 17 5 18 1 6v23l-4 17-6 15-9 14-12 13-10 8-5 2 11 23 12 23 17 33 14 27 6 11v3h-82l-5-8-12-23-15-30-9-17-11-23-5-11 20-9 12-6h7l14-3 14-6 11-8 9-8 9-14 5-11 3-14v-20l-4-16-8-16-8-9v-2l-4-2-10-8-13-6-12-4-8-2-1 2v-2l-5-2-13-8-12-6v-1zm45 183-17 4-9 1h-15l2 6 20 41 15 30 6 13h7l10-4 5-4 6-9 2-5v-14l-8-18-10-19-11-21z" fill="#47A6D3"/>
<path transform="translate(1146,762)" d="m0 0h25v46l41 1v-46l1-1h24v125l-1 1h-23l-1-2v-53h-41v54l-2 1h-22l-1-1z" fill="#47A6D3"/>
<path transform="translate(697,762)" d="m0 0h44l10 2 8 4 7 7 5 10 1 4v18l-4 10-7 9-11 6 8 16 12 23 8 14v3h-27l-12-22-15-29-2-2v52l-1 1h-23l-1-1zm26 23-1 1v24l1 1h10l9-2 5-5 1-2v-8l-5-6-5-2z" fill="#DD1467"/>
<path transform="translate(1070,792)" d="m0 0h19l12 5 5 4 3 1-1-8h24v93l-1 1h-22l-1-3 1-6-10 7-10 4-5 1h-8l-12-3-11-7-9-9-7-14-2-12v-11l3-14 7-13 7-7 9-6zm8 22-8 4-7 8-3 7-1 10 4 13 7 8 9 4h11l10-5 7-9 2-5v-16l-5-10-7-6-8-3z" fill="#DE1467"/>
<path transform="translate(1278,792)" d="m0 0h17l11 4 9 6 1-8h23v93l-1 1h-21l-2-6v-2l-5 3-8 5-6 2-12 1-10-2-12-6-6-5-6-8-5-10-2-6-1-8v-11l3-14 7-13 8-8 8-5zm7 22-8 4-7 8-3 8-1 9 2 9 6 9 8 6 4 1h11l10-5 6-8 3-6 1-11-3-10-6-8-8-5-4-1z" fill="#47A6D3"/>
<path transform="translate(898,758)" d="m0 0h23l1 1v39l-1 4 12-7 9-3h15l10 4 8 7 4 6 2 8v70l-1 1h-22l-1-1-1-57-3-9-5-5-2-1h-10l-8 6-4 8-1 5-1 53-2 1h-22z" fill="#DE1467"/>
<path transform="translate(846,792)" d="m0 0h17l11 4 8 6 4 5-3 5-10 10-4-1-7-5-3-1h-10l-1 5 6 5 19 10 10 9 4 7 1 4v12l-4 10-8 8-9 4-9 2h-8l-12-3-9-5-6-5-2-4 9-11 4-4 5 1v2l5 2 6 3 7 1 6-3 1-5-5-5-18-10-9-7-6-9-1-3v-15l4-8 8-7z" fill="#DE1467"/>
<path transform="translate(998,760)" d="m0 0h24v34h13v21h-13v72l-1 1h-22l-1-1v-72h-12v-21h12z" fill="#DE1467"/>
<path transform="translate(1e3 410)" d="m0 0h10l15 4 4 3-5 3-11 7-10 8-8 10-8 15-4 16-1 13 2 14 4 13 5 10 7 9 5 5 9 8 10 6-1 3-15 3h-16v-3l-9-9-7-10-8-16-5-16-1-6v-26l5-19 6-14 9-13 11-12z" fill="#47A6D3"/>
<path transform="translate(1355,794)" d="m0 0h24l1 5-1 88-1 1h-22l-2-4v-71z" fill="#47A6D3"/>
<path transform="translate(784,794)" d="m0 0h24v93l-1 1h-22l-1-1z" fill="#DE1467"/>
<path transform="translate(1012,351)" d="m0 0h8l7 6 1 6-13 18-6 8-8-6-13-12-5-6 2-6 4-5 11-2zm-7 5-10 1-6 5 1 6 8 8 8 7h4l9-13 3-5v-6l-3-3z" fill="#DD1467"/>
<path transform="translate(787,761)" d="m0 0 9 1h9l3 3v8l-4 6-8 6-5-2-7-8-1-2v-8z" fill="#47A6D3"/>
<path transform="translate(1358,761)" d="m0 0h16l5 2 1 7-3 7-8 7-5-1-8-7-1-2v-10z" fill="#DD1467"/>
</svg>
